<?xml version="1.0"?>
<svg xmlns="http://www.w3.org/2000/svg" xmlns:xlink="http://www.w3.org/1999/xlink" version="1.1" viewBox="0 0 192 192" width="100px" height="100px"><g fill="none" fill-rule="nonzero" stroke="none" stroke-width="1" stroke-linecap="butt" stroke-linejoin="miter" stroke-miterlimit="10" stroke-dasharray="" stroke-dashoffset="0" font-family="none" font-weight="none" font-size="none" text-anchor="none" style="mix-blend-mode: normal"><path d="M0,192v-192h192v192z" fill="none"/><g fill="#6b7681"><g id="surface1"><path d="M115.32,11.52c-0.63,-0.015 -1.26,0.12 -1.83,0.405c-2.415,1.2 -3.96,2.97 -5.355,4.515c-1.38,1.545 -2.415,2.925 -2.415,2.925c-0.045,0.06 -0.09,0.12 -0.12,0.18c-3.81,5.73 -5.685,12.255 -5.76,18.825c-0.045,5.055 0.975,10.14 2.955,14.925c4.845,11.625 14.58,20.61 26.025,24.9h0.015c0.525,0.21 0.99,0.375 1.365,0.51c0.06,0.015 0.12,0.03 0.18,0.06c0.075,0.015 0.24,0.075 0.525,0.15c0.435,0.15 1.17,0.45 2.25,0.66c3.135,0.63 6.06,0.96 8.805,1.05c12.15,0.375 20.565,-4.305 25.815,-9.42c2.625,-2.565 4.5,-5.22 5.82,-7.38c1.335,-2.16 2.355,-4.11 2.37,-4.125h0.015c1.155,-1.755 0.69,-4.11 -1.035,-5.295c-1.74,-1.185 -4.11,-0.75 -5.325,0.975c-2.97,4.365 -6.66,6.87 -11.37,8.085c-4.71,1.215 -10.5,1.035 -17.145,-0.615c-0.9,-0.225 -2.01,-0.585 -3.015,-0.96c0,0 -0.015,0 -0.03,-0.015c-1.215,-0.435 -2.46,-0.96 -3.675,-1.545l-0.015,-0.015l-0.03,-0.015c-2.265,-1.125 -4.455,-2.475 -6.45,-4.035c-5.52,-4.29 -9.81,-11.31 -11.64,-18.645c-1.83,-7.335 -1.2,-14.805 2.205,-20.22c0.735,-1.17 0.78,-2.64 0.135,-3.855c-0.645,-1.215 -1.89,-1.98 -3.27,-2.025zM80.625,19.2c-0.885,0 -1.74,0.315 -2.415,0.87c-6.15,5.01 -12,12.795 -12,12.795c-0.045,0.045 -0.075,0.105 -0.105,0.165c-11.37,16.53 -10.665,38.265 -2.01,55.41c1.425,2.835 3.045,5.595 4.86,8.22c0.015,0.015 0.015,0.015 0.015,0.015c1.425,2.1 3.15,4.845 5.64,7.14c0.81,0.93 1.65,1.8 2.49,2.625c0.195,0.21 0.405,0.42 0.6,0.615c0.015,0.03 0.03,0.045 0.045,0.045c0.795,0.78 1.62,1.56 2.475,2.325l0.015,0.015c0.03,0.03 0.075,0.075 0.105,0.105l0.06,0.03c0.045,0.06 0.105,0.105 0.165,0.15c0.9,0.81 1.815,1.575 2.76,2.31c0.045,0.045 0.075,0.075 0.12,0.105c0,0 0.21,0.18 0.645,0.495c0.96,0.75 1.935,1.47 2.895,2.16c0.12,0.09 0.255,0.18 0.375,0.24c0.09,0.06 0.15,0.105 0.225,0.165h0.015c0.345,0.24 0.69,0.465 0.975,0.66c0.09,0.06 0.3,0.21 0.645,0.435c0.75,0.495 1.485,0.945 2.25,1.41c0.075,0.045 0.165,0.09 0.24,0.135c0,0 0.12,0.06 0.255,0.12c0.03,0.03 0.03,0.015 0.075,0.045c0.6,0.36 1.215,0.72 1.86,1.05c0.225,0.135 0.495,0.27 0.57,0.315c0.045,0.03 0.09,0.045 0.135,0.075c0.39,0.195 0.81,0.42 1.245,0.66c0.375,0.195 0.48,0.21 0.45,0.21c0.96,0.465 1.875,0.885 2.73,1.29c0.06,0.015 0.12,0.045 0.195,0.075c0.18,0.075 0.33,0.135 0.525,0.225c0.765,0.315 1.56,0.675 2.4,0.99c0.045,0.015 0.105,0.045 0.15,0.06c0.165,0.06 0.45,0.165 0.885,0.33c0,0 0.015,0 0.015,0.015c0.72,0.255 1.455,0.495 2.175,0.735c0.375,0.135 0.705,0.24 0.99,0.345c0,0 0,0 0.015,0c0.795,0.255 1.98,0.75 3.585,1.02c0,0 0,-0.015 0.015,0c6.06,1.005 11.655,1.41 16.815,1.305c21.105,-0.465 34.785,-9.765 42.81,-18.915c8.01,-9.15 10.71,-18.39 10.71,-18.39c0.54,-1.815 -0.33,-3.735 -2.04,-4.545c-1.695,-0.81 -3.735,-0.255 -4.815,1.305c-10.2,14.91 -30.03,22.575 -51.72,16.86c-0.96,-0.24 -1.89,-0.51 -2.805,-0.825c-0.06,-0.015 -0.135,-0.045 -0.21,-0.06c-0.135,-0.03 -0.315,-0.09 -0.63,-0.195c-0.03,-0.015 -0.06,-0.03 -0.075,-0.045c-0.705,-0.225 -1.365,-0.435 -1.965,-0.675c0,0 0,0 -0.015,0c-0.345,-0.135 -0.645,-0.24 -0.9,-0.345c-0.765,-0.3 -1.485,-0.585 -2.1,-0.855c-0.045,-0.03 -0.075,-0.045 -0.12,-0.06c-0.33,-0.135 -0.48,-0.21 -0.27,-0.105c-0.09,-0.045 -0.18,-0.075 -0.27,-0.12c-0.84,-0.375 -1.71,-0.78 -2.58,-1.215l-0.06,-0.015c0,-0.015 -0.015,-0.015 -0.03,-0.03c-0.435,-0.225 -0.855,-0.435 -1.29,-0.675c-0.015,0 -0.03,-0.015 -0.06,-0.015c-0.27,-0.15 -0.525,-0.285 -0.75,-0.405v0.015c-0.495,-0.255 -1.005,-0.57 -1.605,-0.93c-0.045,-0.015 -0.075,-0.03 -0.105,-0.045c-0.18,-0.105 -0.24,-0.135 -0.27,-0.165h-0.015l-0.03,-0.015c-0.735,-0.45 -1.425,-0.87 -1.965,-1.245c-0.075,-0.045 -0.165,-0.09 -0.24,-0.135c0.06,0.03 -0.105,-0.09 -0.495,-0.345c-0.405,-0.255 -0.825,-0.525 -1.275,-0.84h-0.015c-0.015,-0.015 -0.03,-0.03 -0.06,-0.03c-0.84,-0.615 -1.71,-1.275 -2.595,-1.95l-0.075,-0.075c-0.21,-0.165 -0.39,-0.3 -0.51,-0.405c-0.03,-0.015 -0.06,-0.045 -0.09,-0.075c-9.57,-7.635 -17.1,-18.09 -20.64,-29.775v-0.015c-3.555,-11.505 0.105,-25.635 6.33,-36.39c0.69,-1.185 0.69,-2.655 0,-3.855c-0.69,-1.185 -1.965,-1.905 -3.33,-1.905zM38.415,30.72c-0.945,0 -1.875,0.345 -2.58,0.99c-0.21,0.18 -0.315,0.375 -0.525,0.57c-7.455,6.9 -12.765,15.3 -12.87,15.48c-15.45,22.455 -13.395,56.91 -1.86,80.175c0,0.015 0,0.03 0,0.045c0.3,0.63 0.6,1.185 0.84,1.62c0.12,0.27 0.255,0.525 0.39,0.78c0.285,0.645 0.495,0.915 0.525,0.96c0.18,0.345 0.36,0.69 0.495,0.945c0.015,0.03 0.045,0.075 0.06,0.105c0.345,0.555 0.675,1.17 1.05,1.785c0,0.015 0.015,0.03 0.03,0.045c0.165,0.27 0.375,0.66 0.705,1.14c0.42,0.69 0.81,1.305 1.095,1.755c0.015,0.03 0.03,0.045 0.03,0.06c0.15,0.225 0.33,0.525 0.555,0.84c0.015,0.03 0.03,0.045 0.045,0.06c0.015,0.03 0.015,0.045 0.045,0.09c0.525,0.795 1.08,1.62 1.695,2.475c0.06,0.075 0.045,0.045 0.09,0.12c0.045,0.06 0.045,0.06 0.075,0.105c0.015,0.015 0.045,0.06 0.06,0.09l0.015,0.015c0.03,0.045 0.15,0.195 0.15,0.195c0,0.015 0.015,0.03 0.03,0.03c0.54,0.75 1.095,1.515 1.68,2.265c0.225,0.3 0.42,0.555 0.525,0.69c0.03,0.045 0.075,0.09 0.105,0.15c0.495,0.585 0.975,1.185 1.47,1.8c0.015,0.03 0.03,0.045 0.045,0.06c0.15,0.18 0.345,0.405 0.555,0.66c0.645,0.78 1.305,1.53 1.98,2.28c0.06,0.06 0.12,0.135 0.18,0.195l-0.03,-0.045c0.195,0.225 0.54,0.6 0.885,0.825l-0.72,-0.615c0.705,0.78 1.425,1.545 2.145,2.31c0.015,0.015 0.03,0.015 0.03,0.03c0.255,0.255 0.51,0.51 0.78,0.78c0.51,0.51 1.05,1.065 1.68,1.665c0.24,0.225 0.48,0.435 0.645,0.615c0.015,0.015 0.015,0.015 0.03,0.015c0.69,0.66 1.44,1.365 2.235,2.07c0.075,0.045 0.12,0.105 0.18,0.15c0,0.015 0,0.015 0,0.015c0.21,0.18 0.33,0.285 0.3,0.255c0.045,0.03 0.075,0.075 0.12,0.105c0.705,0.615 1.41,1.215 2.115,1.815c0.345,0.27 0.645,0.51 0.9,0.735c0.015,0 0.015,0 0.03,0c0.63,0.525 1.23,0.975 1.8,1.41c0,0.015 0.015,0.015 0.015,0.03c0.285,0.21 0.585,0.435 0.915,0.69c0.015,0.015 0.03,0.015 0.045,0.03c0.675,0.51 1.35,0.99 1.995,1.455c0.195,0.15 0.42,0.3 0.66,0.465c-0.015,-0.015 0.075,0.06 0.045,0.045c0.105,0.075 0.21,0.15 0.3,0.21c0.63,0.42 1.245,0.84 1.89,1.26c0,0.015 0.015,0.015 0.015,0.015c0.285,0.18 0.54,0.36 0.795,0.525c0.015,0.015 0.03,0.03 0.06,0.045c1.02,0.66 2.025,1.275 3.015,1.875c0.06,0.045 0.12,0.075 0.18,0.105c0.24,0.135 0.465,0.255 0.675,0.375c0.015,0.015 0.015,0.015 0.03,0.03c0.765,0.435 1.53,0.885 2.34,1.32l-0.075,-0.045c0.54,0.3 1.02,0.525 1.41,0.72c0.48,0.27 0.99,0.555 1.53,0.825c0.075,0.045 0.165,0.09 0.255,0.135c0.285,0.105 0.285,0.135 -0.015,-0.045c0.105,0.075 0.21,0.12 0.315,0.165c0.045,0.03 0.21,0.105 0.495,0.255c0.015,0 0.015,0 0.03,0c0.885,0.45 1.755,0.855 2.655,1.245c0.21,0.105 0.345,0.165 0.3,0.135c0.09,0.045 0.165,0.09 0.24,0.12c1.005,0.45 2.025,0.87 3.06,1.29c0.015,0 0.045,0.015 0.06,0.015c0.06,0.015 0.36,0.15 0.66,0.255c0.06,0.03 0.12,0.045 0.18,0.06c0.03,0.015 0.015,0.015 0.045,0.03c0.825,0.315 1.65,0.63 2.475,0.915c0.225,0.105 0.42,0.165 0.555,0.225c1.08,0.36 2.13,0.705 3.21,1.035c0.03,0.015 0.06,0.03 0.105,0.045c0.06,0.015 0.345,0.105 0.66,0.195c0.015,0 0.03,0.015 0.045,0.015c0.075,0.015 0.06,0.015 0.135,0.045c0.915,0.285 1.995,0.69 3.405,0.96c0.015,0 0.015,0 0.03,0c7.41,1.365 14.295,1.98 20.715,1.98c55.05,0.015 72.705,-44.715 72.705,-44.715c0.675,-1.785 -0.06,-3.795 -1.725,-4.725c-1.665,-0.915 -3.765,-0.48 -4.92,1.035c-15.675,20.61 -43.785,24.78 -71.205,18.48c-0.825,-0.195 -1.8,-0.495 -2.925,-0.84c-0.015,0 -0.045,-0.015 -0.06,-0.015c-0.195,-0.06 -0.405,-0.12 -0.51,-0.165c-0.06,-0.015 -0.12,-0.03 -0.18,-0.045c-0.96,-0.3 -1.935,-0.63 -2.91,-0.96c-0.015,-0.015 -0.045,-0.015 -0.075,-0.03c-0.06,-0.015 -0.12,-0.03 -0.165,-0.06c-0.06,-0.015 -0.12,-0.045 -0.195,-0.06c-0.75,-0.27 -1.56,-0.57 -2.4,-0.9l-0.135,-0.06c-0.33,-0.12 -0.615,-0.225 -0.735,-0.285c-0.9,-0.36 -1.83,-0.75 -2.745,-1.155c-0.09,-0.045 -0.165,-0.075 -0.24,-0.105c0.015,0 -0.18,-0.075 -0.3,-0.12c-0.795,-0.375 -1.575,-0.75 -2.385,-1.14c-0.06,-0.015 -0.105,-0.045 -0.165,-0.075c-0.045,-0.015 -0.18,-0.075 -0.45,-0.225c-0.03,-0.015 -0.06,-0.03 -0.105,-0.045c-0.525,-0.255 -1.11,-0.555 -1.71,-0.885c-0.015,-0.015 -0.045,-0.03 -0.06,-0.045c-0.48,-0.24 -0.855,-0.42 -1.125,-0.585c-0.03,0 -0.045,-0.015 -0.075,-0.03c-0.705,-0.375 -1.44,-0.81 -2.22,-1.245l0.3,0.18c-0.51,-0.33 -0.87,-0.51 -1.08,-0.63l0.12,0.06c-0.975,-0.585 -1.935,-1.17 -2.85,-1.755c-0.015,-0.015 -0.03,-0.015 -0.03,-0.03c-0.18,-0.105 -0.39,-0.24 -0.645,-0.42c-0.045,-0.045 -0.105,-0.075 -0.15,-0.105c-0.63,-0.405 -1.275,-0.855 -1.95,-1.305l-0.045,-0.03c-0.135,-0.105 -0.345,-0.255 -0.63,-0.465c-0.6,-0.42 -1.2,-0.855 -1.815,-1.32h-0.03c-0.03,-0.03 -0.045,-0.045 -0.075,-0.075c-0.24,-0.195 -0.51,-0.39 -0.78,-0.6c-0.6,-0.465 -1.17,-0.9 -1.68,-1.32l-0.075,-0.045c-0.3,-0.255 -0.57,-0.48 -0.765,-0.645c0,0 -0.015,0 -0.03,-0.015c-0.705,-0.57 -1.38,-1.17 -2.115,-1.8l0.315,0.315c-0.615,-0.69 -0.9,-0.78 -0.75,-0.675l0.21,0.18c-0.735,-0.66 -1.485,-1.365 -2.25,-2.085l-0.045,-0.03c-0.12,-0.12 -0.315,-0.315 -0.57,-0.555l-0.105,-0.105c-0.555,-0.54 -1.065,-1.05 -1.53,-1.515c-0.015,-0.015 -0.015,-0.015 -0.03,-0.03c-0.21,-0.21 -0.405,-0.42 -0.645,-0.66c-0.66,-0.66 -1.305,-1.365 -1.95,-2.085c-0.03,-0.03 -0.075,-0.075 -0.105,-0.12h-0.015c-0.675,-0.735 -1.335,-1.5 -2.01,-2.295c0,-0.015 0,-0.03 -0.015,-0.045c-0.105,-0.12 -0.285,-0.345 -0.57,-0.675c-0.465,-0.57 -0.93,-1.17 -1.44,-1.785l-0.015,-0.015c-0.165,-0.225 -0.345,-0.465 -0.45,-0.6l-0.015,-0.015c-0.57,-0.75 -1.11,-1.485 -1.65,-2.235l-0.015,-0.015c-7.23,-9.96 -12.225,-26.07 -13.62,-41.58c-1.41,-15.495 1.005,-30.375 6.405,-37.695c0.87,-1.155 1.005,-2.7 0.36,-3.99c-0.645,-1.305 -1.965,-2.115 -3.42,-2.13zM108.3,33.21c0.21,2.1 -0.015,4.215 0.495,6.27c2.235,8.895 7.23,17.295 14.385,22.86c2.445,1.89 5.07,3.525 7.785,4.86c0.015,0.015 0.03,0.03 0.045,0.03c1.44,0.69 2.925,1.32 4.44,1.875l-0.03,-0.015c1.17,0.435 2.49,0.885 3.825,1.215c3.465,0.855 6.81,1.305 10.05,1.485c-2.28,0.465 -4.185,1.245 -7.095,1.155c-2.28,-0.075 -4.8,-0.36 -7.545,-0.9h-0.015c-0.18,-0.03 -0.645,-0.21 -1.44,-0.45c-0.09,-0.03 -0.27,-0.09 -0.465,-0.15c-0.465,-0.165 -0.84,-0.285 -1.125,-0.405c-0.03,-0.015 -0.045,-0.015 -0.075,-0.03c-9.48,-3.555 -17.685,-11.145 -21.645,-20.67c-1.605,-3.87 -2.415,-7.92 -2.37,-11.895c0.015,-1.785 0.435,-3.51 0.78,-5.235zM69.27,44.04c-0.975,6.495 -0.96,13.155 1.005,19.56c4.05,13.35 12.51,25.005 23.205,33.54c0.225,0.195 0.45,0.375 0.6,0.51c0.03,0.015 0.06,0.045 0.09,0.06c0.96,0.75 1.965,1.515 3.015,2.25c0.015,0.015 0.045,0.03 0.075,0.045c0.48,0.33 0.96,0.645 1.485,0.975c0,0.015 0,0.015 0,0.015c0.03,0.015 0.3,0.225 0.81,0.525c0.72,0.465 1.44,0.9 2.04,1.275c0.03,0.015 0.045,0.03 0.06,0.045c0.27,0.15 0.45,0.255 0.525,0.285c0.54,0.33 1.14,0.69 1.86,1.065c0,0 0,0 0,0.015c0.285,0.135 0.57,0.285 0.855,0.42c0.465,0.24 0.915,0.48 1.365,0.72c0.03,0.015 0.06,0.03 0.105,0.045c0.84,0.42 1.74,0.84 2.67,1.245c0.495,0.255 0.705,0.33 0.84,0.375c0.87,0.39 1.695,0.705 2.445,1.005c0.375,0.15 0.735,0.285 1.02,0.405l-0.015,-0.015c0.795,0.3 1.575,0.555 2.31,0.795c0.225,0.09 0.54,0.18 0.885,0.285c1.065,0.36 2.16,0.69 3.27,0.975c14.4,3.795 28.125,1.845 39.72,-3.6c-7.05,6.315 -17.28,11.82 -32.88,12.165c-4.65,0.105 -9.765,-0.255 -15.405,-1.2c-0.015,-0.015 -0.03,-0.015 -0.045,-0.015c-0.465,-0.075 -1.275,-0.375 -2.445,-0.75c-0.33,-0.09 -0.615,-0.195 -0.915,-0.3c-0.66,-0.21 -1.335,-0.45 -1.995,-0.69l-0.03,-0.015c-0.165,-0.06 -0.495,-0.18 -0.885,-0.315l-0.09,-0.045c-0.03,-0.015 -0.03,-0.015 -0.06,-0.015c-0.63,-0.255 -1.29,-0.54 -1.98,-0.84c0,0 0,0 -0.015,0c-0.195,-0.09 -0.39,-0.18 -0.615,-0.255c-0.9,-0.42 -1.755,-0.81 -2.55,-1.215c-0.045,-0.015 -0.09,-0.03 -0.135,-0.045c-0.39,-0.225 -0.825,-0.45 -1.29,-0.675l-0.045,-0.03c-0.03,-0.015 -0.045,-0.03 -0.075,-0.045c-0.18,-0.09 -0.375,-0.195 -0.375,-0.195c-0.09,-0.06 -0.18,-0.105 -0.255,-0.15c-0.555,-0.285 -1.125,-0.615 -1.665,-0.945c-0.105,-0.06 -0.195,-0.105 -0.3,-0.165c0,0 -0.09,-0.045 -0.135,-0.06c-0.66,-0.405 -1.29,-0.795 -1.935,-1.215c-0.015,-0.015 -0.03,-0.03 -0.045,-0.045c-0.06,-0.03 -0.255,-0.165 -0.585,-0.375c-0.48,-0.315 -0.87,-0.57 -1.17,-0.78c-0.09,-0.075 -0.195,-0.135 -0.3,-0.21c0,0 -0.015,0 -0.03,-0.015c-0.87,-0.63 -1.725,-1.26 -2.535,-1.905c-0.045,-0.03 -0.09,-0.06 -0.12,-0.09c-0.015,-0.015 -0.24,-0.195 -0.525,-0.42c-0.855,-0.675 -1.665,-1.35 -2.46,-2.055c-0.015,-0.015 -0.015,-0.015 -0.03,-0.03c-0.03,-0.03 -0.075,-0.06 -0.105,-0.09c-0.015,-0.015 -0.045,-0.03 -0.06,-0.045c-0.03,-0.03 -0.045,-0.045 -0.06,-0.06c-0.75,-0.675 -1.485,-1.365 -2.22,-2.085l-0.045,-0.045c-0.195,-0.195 -0.375,-0.375 -0.54,-0.555c-0.015,0 -0.015,-0.015 -0.03,-0.015c-0.795,-0.795 -1.515,-1.545 -2.145,-2.28c-0.12,-0.135 -0.24,-0.255 -0.375,-0.36c-1.47,-1.29 -3.105,-3.72 -4.71,-6.06c-0.015,-0.015 -0.015,-0.015 -0.015,-0.03c-1.62,-2.31 -3.06,-4.755 -4.32,-7.29c0,-0.015 0,-0.015 0,-0.03c-6.435,-12.705 -7.29,-28.08 -1.695,-40.935zM27.915,54.06c-0.855,6.705 -1.155,13.815 -0.495,21.18c1.5,16.605 6.555,33.675 15.06,45.375c0.585,0.84 1.185,1.635 1.8,2.445c0.225,0.3 0.375,0.48 0.42,0.54c0.06,0.09 0.12,0.18 0.195,0.255c0.48,0.6 0.975,1.215 1.485,1.86c0.045,0.045 0.075,0.075 0.12,0.12c0.09,0.105 0.255,0.33 0.525,0.645c0.69,0.81 1.41,1.65 2.16,2.475c0.03,0.03 0.06,0.075 0.09,0.105c0.705,0.78 1.44,1.56 2.19,2.325c0.195,0.195 0.405,0.42 0.66,0.675c0.015,0.015 0.015,0.015 0.015,0.015l0.015,0.015c0.6,0.6 1.155,1.155 1.68,1.665c0.03,0.03 0.075,0.075 0.105,0.105c0.12,0.105 0.3,0.3 0.615,0.6c0.015,0.015 0.03,0.015 0.045,0.03c0.765,0.72 1.56,1.47 2.385,2.19c0.06,0.075 0.135,0.135 0.21,0.195c0.315,0.24 0.24,0.27 -0.24,-0.255c0.105,0.105 0.21,0.21 0.315,0.3c0.75,0.675 1.515,1.335 2.355,2.01c0.3,0.24 0.54,0.435 0.72,0.585c0.015,0.015 0.045,0.045 0.06,0.06c0.645,0.525 1.26,0.99 1.83,1.44c0.045,0.045 0.09,0.075 0.12,0.105c0.255,0.165 0.495,0.36 0.765,0.555c0.03,0.045 0.06,0.075 0.105,0.105c0.675,0.48 1.335,0.975 2.055,1.485c0.15,0.105 0.375,0.285 0.66,0.495c0.015,0 0.03,0.015 0.06,0.015c0.69,0.48 1.425,0.99 2.22,1.485c0.21,0.15 0.45,0.33 0.765,0.525c0.015,0.015 0.03,0.015 0.03,0.015c1.02,0.66 2.04,1.29 3.03,1.875c0.03,0.015 0.06,0.045 0.105,0.06c0.33,0.18 0.48,0.27 0.45,0.255c0.09,0.06 0.195,0.135 0.3,0.195c0.72,0.39 1.47,0.825 2.265,1.26l0.015,0.015c0.015,0 0.03,0.015 0.06,0.015c0.495,0.285 0.945,0.51 1.32,0.705c0.585,0.315 1.215,0.645 1.875,0.96c0.015,0.015 0.06,0.03 0.06,0.045c0.03,0 0.03,0 0.045,0.015c0.225,0.105 0.48,0.255 0.885,0.42c0.75,0.375 1.515,0.735 2.31,1.095c0.06,0.03 0.12,0.06 0.18,0.09c0.015,0 0.27,0.105 0.465,0.195c0.96,0.42 1.98,0.855 3.045,1.275c0,0.015 0.015,0.015 0.015,0.015c0.345,0.135 0.555,0.21 0.6,0.225c0.06,0.03 0.105,0.045 0.165,0.06c0.885,0.36 1.815,0.72 2.805,1.065c0.165,0.06 0.345,0.12 0.51,0.18c0.945,0.33 1.92,0.645 2.925,0.96c0.39,0.135 0.735,0.225 1.035,0.315c0.99,0.3 2.085,0.66 3.345,0.945c20.325,4.68 41.595,3.495 58.875,-5.295c-9.99,10.005 -26.37,20.055 -52.02,20.055c-5.925,0 -12.345,-0.57 -19.32,-1.86c-0.69,-0.135 -1.575,-0.435 -2.76,-0.795c-0.06,-0.03 -0.12,-0.045 -0.18,-0.06c-0.015,0 -0.255,-0.075 -0.54,-0.165l-0.12,-0.03c-0.96,-0.3 -1.905,-0.615 -2.865,-0.945c-0.03,-0.015 -0.045,-0.015 -0.075,-0.03c-0.105,-0.03 -0.075,-0.015 -0.045,-0.015c-0.045,-0.015 -0.105,-0.045 -0.15,-0.06c-0.915,-0.33 -1.83,-0.675 -2.685,-1.005c-0.06,-0.03 -0.135,-0.045 -0.21,-0.075c0.03,0.015 -0.18,-0.075 -0.495,-0.195l-0.06,-0.03c-0.93,-0.375 -1.83,-0.75 -2.745,-1.155c-0.18,-0.075 -0.42,-0.195 -0.45,-0.195c-0.015,-0.015 -0.03,-0.03 -0.045,-0.03c-0.84,-0.375 -1.62,-0.735 -2.37,-1.11h-0.03c-0.06,-0.045 -0.285,-0.15 -0.435,-0.225c-0.345,-0.195 -0.39,-0.195 -0.51,-0.24l-0.06,-0.015c-0.48,-0.255 -0.96,-0.51 -1.425,-0.765c-0.045,-0.03 -0.09,-0.06 -0.135,-0.075c-0.45,-0.225 -0.795,-0.405 -1.065,-0.555c-0.015,-0.015 -0.045,-0.03 -0.06,-0.03c-0.69,-0.375 -1.38,-0.765 -2.07,-1.17l-0.03,-0.015c-0.3,-0.18 -0.585,-0.345 -0.885,-0.495l-0.075,-0.06c-0.9,-0.54 -1.785,-1.095 -2.67,-1.665c-0.255,-0.18 -0.51,-0.33 -0.765,-0.495l-0.015,-0.015c0,0 0,0 -0.015,0c-0.585,-0.405 -1.155,-0.795 -1.77,-1.2c-0.09,-0.075 -0.195,-0.15 -0.3,-0.225c-0.15,-0.09 -0.33,-0.225 -0.54,-0.375c-0.015,-0.015 -0.03,-0.03 -0.045,-0.045c-0.63,-0.435 -1.245,-0.885 -1.83,-1.32l-0.015,-0.015h-0.015c-0.285,-0.225 -0.57,-0.45 -0.885,-0.69l-0.015,-0.015c-0.6,-0.45 -1.155,-0.87 -1.665,-1.29l-0.015,-0.015c-0.3,-0.24 -0.555,-0.435 -0.765,-0.615c0,-0.015 -0.015,-0.015 -0.015,-0.015c-0.69,-0.585 -1.365,-1.17 -2.04,-1.74c-0.09,-0.09 -0.165,-0.15 -0.225,-0.18c-0.06,-0.075 -0.135,-0.135 -0.195,-0.195c-0.69,-0.585 -1.395,-1.26 -2.13,-1.95l-0.015,-0.03c-0.255,-0.24 -0.48,-0.435 -0.675,-0.63c-0.015,-0.015 -0.03,-0.03 -0.045,-0.045c-0.48,-0.45 -0.975,-0.975 -1.53,-1.53c-0.03,-0.03 -0.06,-0.06 -0.09,-0.105c-0.21,-0.195 -0.39,-0.36 -0.57,-0.54c-0.675,-0.72 -1.335,-1.425 -1.995,-2.145c-0.015,-0.015 -0.03,-0.03 -0.03,-0.03c-0.03,-0.045 -0.06,-0.075 -0.105,-0.105c-0.66,-0.75 -1.305,-1.485 -1.92,-2.235c-0.03,-0.03 -0.06,-0.06 -0.09,-0.105c-0.12,-0.135 -0.285,-0.33 -0.465,-0.54l-0.015,-0.015c0,-0.015 -0.015,-0.03 -0.03,-0.045c-0.465,-0.585 -0.96,-1.2 -1.47,-1.815c-0.18,-0.24 -0.345,-0.465 -0.42,-0.585c-0.045,-0.045 -0.075,-0.09 -0.105,-0.12c-0.495,-0.645 -0.99,-1.29 -1.485,-1.98l-0.03,-0.045c-0.135,-0.195 -0.225,-0.3 -0.18,-0.24c-0.03,-0.045 -0.06,-0.09 -0.09,-0.135c-0.03,-0.045 -0.06,-0.075 -0.09,-0.12c-0.015,-0.015 -0.03,-0.045 -0.045,-0.06c0,0 0,0 -0.015,0c-0.51,-0.72 -1.02,-1.485 -1.56,-2.295c-0.015,-0.045 -0.045,-0.09 -0.09,-0.135c-0.09,-0.135 -0.21,-0.33 -0.36,-0.57l-0.045,-0.06c-0.45,-0.735 -0.855,-1.335 -1.125,-1.8c-0.03,-0.06 -0.075,-0.135 -0.12,-0.195c-0.12,-0.18 -0.27,-0.45 -0.495,-0.81l-0.015,-0.03c-0.315,-0.525 -0.645,-1.08 -0.99,-1.665v-0.03c-0.03,-0.03 -0.03,-0.045 -0.06,-0.075c-0.15,-0.3 -0.285,-0.555 -0.39,-0.765c-0.045,-0.09 -0.09,-0.165 -0.15,-0.255c-0.165,-0.3 -0.225,-0.435 -0.09,-0.15c-0.06,-0.135 -0.12,-0.255 -0.18,-0.36c-0.135,-0.24 -0.27,-0.465 -0.36,-0.705c-0.03,-0.06 -0.06,-0.12 -0.09,-0.18c-0.3,-0.57 -0.54,-1.02 -0.72,-1.38c-0.015,-0.045 -0.03,-0.09 -0.045,-0.12c-10.005,-20.175 -11.415,-51.27 0.45,-70.5zM85.695,104.085l0.045,0.015c0.06,0.09 0.045,0.06 0.12,0.18c-0.045,-0.075 -0.105,-0.135 -0.165,-0.195zM40.965,144.405c0,0 0.045,0.045 0.06,0.06c0.045,0.045 0.03,0.03 0.075,0.09l0.015,0.015v0.015c0.03,0.015 0.045,0.06 0.06,0.09c-0.12,-0.165 -0.165,-0.225 -0.21,-0.27zM56.625,158.1l0.135,0.075c-0.27,-0.195 -0.255,-0.21 0,0.03c-0.045,-0.045 -0.09,-0.075 -0.135,-0.105z"/></g></g></g></svg>
