<?xml version="1.0"?>
<svg xmlns="http://www.w3.org/2000/svg" xmlns:xlink="http://www.w3.org/1999/xlink" version="1.1" viewBox="0 0 192 192" width="100px" height="100px"><g fill="none" fill-rule="nonzero" stroke="none" stroke-width="1" stroke-linecap="butt" stroke-linejoin="miter" stroke-miterlimit="10" stroke-dasharray="" stroke-dashoffset="0" font-family="none" font-weight="none" font-size="none" text-anchor="none" style="mix-blend-mode: normal"><path d="M0,192v-192h192v192z" fill="none"/><g fill="#6b7681"><g id="surface1"><path d="M96,46.08c-24.93,0 -47.535,5.22 -64.23,13.935c-16.695,8.715 -27.93,21.27 -27.93,35.985c0,14.715 11.235,27.27 27.93,35.985c16.695,8.715 39.3,13.935 64.23,13.935c24.93,0 47.535,-5.22 64.23,-13.935c16.695,-8.715 27.93,-21.27 27.93,-35.985c0,-14.715 -11.235,-27.27 -27.93,-35.985c-16.695,-8.715 -39.3,-13.935 -64.23,-13.935zM96,53.76c23.85,0 45.405,5.085 60.675,13.065c15.27,7.965 23.805,18.435 23.805,29.175c0,10.74 -8.535,21.21 -23.805,29.175c-15.27,7.98 -36.825,13.065 -60.675,13.065c-23.85,0 -45.405,-5.085 -60.675,-13.065c-15.27,-7.965 -23.805,-18.435 -23.805,-29.175c0,-10.74 8.535,-21.21 23.805,-29.175c15.27,-7.98 36.825,-13.065 60.675,-13.065zM86.43,61.44l-9.63,46.08h10.08l4.86,-23.04h8.055c2.565,0 4.275,0.42 5.07,1.275c0.78,0.855 0.945,2.475 0.495,4.8l-3.675,16.965h10.23l3.99,-18.345c0.855,-4.395 0.21,-7.62 -1.92,-9.585c-2.175,-1.995 -6,-2.79 -11.7,-2.79h-8.985l3.195,-15.36zM42.24,76.8l-7.785,42.24h10.155l2.025,-11.52h6.33c13.23,0 20.43,-3.06 23.115,-14.415c2.31,-9.765 -3.6,-16.305 -13.365,-16.305zM122.88,76.8l-7.785,42.24h10.155l2.025,-11.52h6.33c13.23,0 20.43,-3.06 23.115,-14.415c2.31,-9.765 -3.6,-16.305 -13.365,-16.305zM50.97,84.48h7.905c6.57,0 7.95,2.955 7.605,6.24c-0.885,8.475 -6.165,9.12 -11.835,9.12h-6.585zM131.61,84.48h7.905c6.57,0 7.95,2.955 7.605,6.24c-0.885,8.475 -6.165,9.12 -11.835,9.12h-6.585z"/></g></g></g></svg>
