<svg xmlns="http://www.w3.org/2000/svg" viewBox="0 0 50 50" width="50" height="50">
	<style>
		tspan { white-space:pre }
		.shp0 { fill: none } 
		.shp1 { fill: #ffffff } 
		.shp2 { fill: #525353 } 
		.shp3 { fill: #000000 } 
		.shp4 { fill: #aa9678 } 
		.shp5 { fill: #c0b098 } 
		.shp6 { fill: #786453 } 
		.shp7 { fill: #8b7460 } 
		.shp8 { fill: #bbbcbd } 
		.shp9 { fill: #676a6a } 
		.shp10 { fill: #909393 } 
		.shp11 { fill: #e2dddb } 
		.shp12 { fill: #fbb040 } 
		.shp13 { fill: #9f2255 } 
		.shp14 { fill: #e2066f } 
	</style>
	<g id="Layer">
		<path id="canvas_background" class="shp0" d="M-0.17,67.97h99.32v-68.14h-99.32z" />
	</g>
	<g id="Layer">
		<path id="svg_1" class="shp1" d="M16.3,37.8c0.39,-0.17 0.78,-0.33 1.18,-0.48c0.45,-0.17 0.9,-0.33 1.36,-0.46c0.57,-0.17 1.15,-0.33 1.73,-0.45c0.79,-0.17 1.59,-0.29 2.39,-0.37c-0.45,1.41 -0.95,2.81 -1.49,4.2c0.02,0.27 0.04,0.54 0.04,0.81c1.09,-0.21 2.21,-0.33 3.36,-0.33c1.15,0 2.27,0.11 3.36,0.33c0.01,-0.27 0.02,-0.54 0.04,-0.81c-0.54,-1.39 -1.04,-2.79 -1.49,-4.2c0.8,0.08 1.6,0.2 2.39,0.37c0.58,0.12 1.16,0.28 1.73,0.45c0.46,0.14 0.91,0.3 1.36,0.46c0.4,0.15 0.79,0.31 1.18,0.48c2.76,1.22 5.28,3.04 7.35,5.39c5.18,-4.44 8.46,-11.01 8.46,-18.34c0,-13.38 -10.92,-24.22 -24.39,-24.22c-13.47,0 -24.39,10.85 -24.39,24.22c0,7.33 3.28,13.89 8.46,18.34c2.07,-2.35 4.59,-4.17 7.35,-5.39z" />
		<path id="svg_2" class="shp2" d="M17.91,42.18c1.14,-0.5 2.35,-0.89 3.61,-1.13c-0.01,-0.27 -0.02,-0.54 -0.04,-0.81c0.54,-1.39 1.04,-2.79 1.49,-4.2c-0.8,0.08 -1.6,0.2 -2.39,0.37c-0.58,0.12 -1.16,0.28 -1.73,0.45c-0.46,0.14 -0.91,0.3 -1.36,0.46l1.78,0.43z" />
		<path id="svg_3" class="shp2" d="M13.72,44.79c0.04,-0.45 0.07,-0.91 0.07,-1.37c0,-0.28 0.23,-0.5 0.5,-0.5h0.44l1.56,-5.13c-2.76,1.22 -5.28,3.04 -7.35,5.39c1.14,0.98 2.37,1.85 3.68,2.61c0.35,-0.35 0.71,-0.68 1.09,-1z" />
		<path id="svg_4" class="shp2" d="M33.46,37.8l1.56,5.13h0.44c0.28,0 0.5,0.22 0.5,0.5c0,0.46 0.03,0.92 0.07,1.37c0.38,0.32 0.74,0.65 1.09,1c1.31,-0.76 2.54,-1.63 3.68,-2.61c-2.07,-2.35 -4.59,-4.17 -7.35,-5.39z" />
		<path id="svg_5" class="shp2" d="M30.5,37.75l1.78,-0.43c-0.45,-0.17 -0.9,-0.33 -1.36,-0.46c-0.57,-0.17 -1.15,-0.33 -1.73,-0.45c-0.79,-0.17 -1.59,-0.29 -2.39,-0.37c0.45,1.41 0.95,2.81 1.49,4.2c-0.02,0.27 -0.04,0.54 -0.04,0.81c1.26,0.25 2.47,0.63 3.61,1.13z" />
		<path id="svg_6" class="shp3" d="M24.88,42.92h3.44c-0.07,-0.63 -0.1,-1.26 -0.08,-1.88c-1.09,-0.21 -2.21,-0.33 -3.36,-0.33c-1.15,0 -2.27,0.11 -3.36,0.33c0.02,0.62 -0.01,1.25 -0.08,1.88z" />
		<path id="svg_7" class="shp3" d="M12.63,45.79c0.28,0.16 0.57,0.32 0.86,0.48c0.1,-0.49 0.18,-0.98 0.23,-1.48c-0.38,0.32 -0.74,0.65 -1.09,1z" />
		<path id="svg_8" class="shp3" d="M17.68,42.92h3.76c0.07,-0.63 0.1,-1.26 0.08,-1.88c-1.26,0.25 -2.47,0.63 -3.61,1.13z" />
		<path id="svg_9" class="shp3" d="M36.04,44.79c0.05,0.5 0.13,0.99 0.23,1.48c0.29,-0.15 0.58,-0.31 0.86,-0.48c-0.35,-0.35 -0.71,-0.68 -1.09,-1z" />
		<path id="svg_10" class="shp3" d="M32.08,42.92l-0.23,-0.74c-1.15,-0.5 -2.35,-0.89 -3.61,-1.13c-0.02,0.62 0.01,1.25 0.08,1.88z" />
		<path id="svg_11" class="shp4" d="M17.68,42.92l0.23,-0.74l1.35,-4.43l-1.78,-0.43c-0.4,0.15 -0.79,0.31 -1.18,0.48l-1.56,5.13h1.68z" />
		<path id="svg_12" class="shp4" d="M31.85,42.18l0.23,0.74h1.27h1.68l-1.56,-5.13c-0.39,-0.17 -0.78,-0.33 -1.18,-0.48l-1.78,0.43z" />
		<path id="svg_13" class="shp5" d="M14.79,43.96c0.02,-0.01 0.03,-0.02 0.05,-0.03h-0.04c0,0.01 0,0.02 0,0.03z" />
		<path id="svg_14" class="shp5" d="M24.88,43.93h-3.59h-3.92h-2.54c-0.02,0.01 -0.03,0.02 -0.05,0.03c-0.03,0.95 -0.16,1.87 -0.37,2.78c3.17,1.5 6.72,2.34 10.46,2.34z" />
		<path id="svg_15" class="shp4" d="M34.97,43.93h-0.04c0.02,0.01 0.03,0.02 0.05,0.03c0,-0.01 0,-0.02 0,-0.03z" />
		<path id="svg_16" class="shp4" d="M34.93,43.93h-2.54h-3.92h-3.59h0v5.15c3.74,0 7.29,-0.84 10.46,-2.34c-0.21,-0.9 -0.33,-1.83 -0.37,-2.78c-0.02,-0.01 -0.03,-0.02 -0.05,-0.03z" />
		<path id="svg_17" class="shp6" d="M24.88,43.93h0v-0.5h0z" />
		<path id="svg_18" class="shp7" d="M36.04,44.79c-0.04,-0.45 -0.07,-0.91 -0.07,-1.37c0,-0.28 -0.23,-0.5 -0.5,-0.5h-0.44h-1.68h-1.27h-3.76h-3.44h-3.44h-3.76h-1.27h-1.68h-0.44c-0.28,0 -0.5,0.22 -0.5,0.5c0,0.46 -0.03,0.92 -0.07,1.37c-0.05,0.5 -0.13,0.99 -0.23,1.48c0.31,0.16 0.62,0.32 0.93,0.47c0.21,-0.9 0.33,-1.83 0.37,-2.78c0,-0.01 0,-0.02 0,-0.03h0.04h2.54h3.92h3.59h0h3.59h3.92h2.54h0.04c0,0.01 0,0.02 0,0.03c0.03,0.95 0.16,1.87 0.37,2.78c0.31,-0.15 0.62,-0.31 0.93,-0.47c-0.1,-0.49 -0.18,-0.98 -0.23,-1.48z" />
		<path id="svg_20" class="shp0" d="M33.09,21.17v0c0,0 0,0 0,0.01c0.31,0.87 0.65,1.75 0.83,2.66c-0.01,0.06 -0.01,0.13 -0.02,0.2c-0.02,0.1 -0.03,0.18 -0.05,0.26c0.03,-0.12 0.05,-0.26 0.08,-0.43c-0.18,-0.92 -0.53,-1.81 -0.84,-2.7c0,0 0,0 0,0.01c0,0 0,0 0,-0.01z" />
		<path id="svg_21" class="shp0" d="M40.19,26.64c-0.01,0.01 -0.03,0.01 -0.04,0.02c0.01,-0.01 0.03,-0.01 0.04,-0.02z" />
		<path id="svg_22" class="shp0" d="M40.35,26.53c-0.02,0.02 -0.03,0.03 -0.05,0.05c0.02,-0.01 0.04,-0.03 0.05,-0.05z" />
		<path id="svg_23" class="shp0" d="M32.36,20.53c-0.56,-0.47 -1.15,-0.9 -1.77,-1.28v0c0.62,0.38 1.21,0.81 1.77,1.28z" />
		<path id="svg_24" class="shp0" d="M38.01,26.34c0,0.01 0.01,0.01 0.01,0.02c0,-0.01 -0.01,-0.01 -0.01,-0.02z" />
		<path id="svg_25" class="shp0" d="M39.05,27.62c0.02,0.02 0.03,0.04 0.05,0.06c-0.02,-0.02 -0.03,-0.04 -0.05,-0.06z" />
		<path id="svg_26" class="shp0" d="M33.85,24.32c-0.02,0.07 -0.03,0.14 -0.05,0.19c0.02,-0.05 0.03,-0.12 0.05,-0.19z" />
		<path id="svg_27" class="shp0" d="M31.45,33.16c-0.37,0.62 -0.61,1.2 -0.75,1.75c0.14,-0.55 0.38,-1.13 0.75,-1.75c0.12,-0.2 0.24,-0.4 0.36,-0.6c-0.12,0.19 -0.23,0.39 -0.36,0.59c0,0 0,0 0,0.01z" />
		<path id="svg_28" class="shp0" d="M33.09,21.16c0.02,-0.04 0.04,-0.09 0.07,-0.13l-0.01,0c-0.02,0.04 -0.04,0.08 -0.06,0.12c0.15,0.13 0.29,0.25 0.44,0.39c-0.14,-0.13 -0.29,-0.26 -0.44,-0.38z" />
		<path id="svg_29" class="shp0" d="M28.25,24.34c0,0 0,0 0,0c0,0 0,0 0,0z" />
		<path id="svg_30" class="shp0" d="M28.07,23.94l0,0z" />
		<path id="svg_31" class="shp0" d="M29.72,18.76c-0.03,-0.02 -0.06,-0.03 -0.08,-0.04c0.02,0.01 0.04,0.02 0.08,0.04z" />
		<path id="svg_32" class="shp0" d="M29.84,18.83c-0.04,-0.02 -0.07,-0.04 -0.1,-0.06c0.03,0.02 0.06,0.04 0.1,0.06z" />
		<path id="svg_33" class="shp0" d="M30.64,20.78c0,0.06 0,0.11 0,0.17c0,-0.06 0,-0.11 0,-0.17z" />
		<path id="svg_34" class="shp0" d="M28.17,24.13c0,0 0,0 0,0c0,0 0,0 0,0z" />
		<path id="svg_35" class="shp0" d="M40.04,28.89c0.03,0.04 0.06,0.08 0.09,0.12c-0.03,-0.04 -0.06,-0.08 -0.09,-0.12z" />
		<path id="svg_36" class="shp0" d="M30.64,21.55c0,0.25 -0.01,0.51 -0.03,0.76c0.01,-0.25 0.02,-0.51 0.03,-0.76z" />
		<path id="svg_37" class="shp0" d="M28.31,24.56c0,0 0,0 0,0.01c0,0 0,0 0,-0.01z" />
		<path id="svg_38" class="shp0" d="M30.54,19.23c-0.09,-0.05 -0.32,-0.18 -0.53,-0.3c0.21,0.12 0.44,0.25 0.53,0.3z" />
		<path id="svg_39" class="shp0" d="M30,18.92c-0.05,-0.03 -0.1,-0.06 -0.15,-0.08c0.05,0.03 0.1,0.05 0.15,0.08z" />
		<path id="svg_40" class="shp0" d="M30.58,19.25v0c0,0 -0.01,-0.01 -0.02,-0.01c0.01,0 0.01,0.01 0.02,0.01z" />
		<path id="svg_41" class="shp0" d="M40.86,25.13c0,-0.02 0,-0.04 0,-0.06c0,0 0,0 0,-0.01c0,0 0,0 0,-0.01c0,-0.02 0,-0.03 0,-0.05c0,0.02 0,0.04 0,0.06c0,0.02 0,0.04 0,0.06z" />
		<path id="svg_42" class="shp0" d="M36.86,24.98c0.02,0.03 0.05,0.05 0.07,0.08c0,0 0,0 0,0h0.01c-0.01,-0.01 -0.04,-0.04 -0.07,-0.08z" />
		<path id="svg_43" class="shp0" d="M33.53,21.55c0.32,0.3 0.64,0.6 0.96,0.9c-0.31,-0.31 -0.63,-0.61 -0.96,-0.9z" />
		<path id="svg_44" class="shp0" d="M39.88,23.4c0.06,0 0.12,0.01 0.17,0.03c-0.06,-0.02 -0.11,-0.03 -0.17,-0.03z" />
		<path id="svg_45" class="shp0" d="M38.94,24.6c-0.01,0.03 -0.01,0.06 -0.02,0.09c0,-0.03 0.01,-0.06 0.02,-0.09z" />
		<path id="svg_46" class="shp0" d="M40.1,23.45c0.04,0.02 0.08,0.04 0.12,0.06c-0.04,-0.02 -0.08,-0.05 -0.12,-0.06z" />
		<path id="svg_47" class="shp0" d="M40.48,23.76c0.01,0.02 0.03,0.04 0.04,0.05c-0.01,-0.02 -0.03,-0.04 -0.04,-0.05z" />
		<path id="svg_48" class="shp0" d="M40.84,24.72c0,0 0,-0.01 0,-0.01c0,-0.01 0,-0.01 0,-0.02c0,0.01 0,0.02 0.01,0.03c0,0 0,0 0,0z" />
		<path id="svg_49" class="shp0" d="M40.84,25.43c0,0 0,-0.01 0,-0.01c0,0 0,0 0,0c0,0.01 0,0.02 -0.01,0.04c0,-0.01 0,-0.01 0,-0.02z" />
		<path id="svg_50" class="shp0" d="M39.24,23.81c0.01,-0.02 0.03,-0.04 0.04,-0.05c-0.01,0.02 -0.03,0.04 -0.04,0.05z" />
		<path id="svg_51" class="shp0" d="M39.7,23.43c0.06,-0.02 0.11,-0.03 0.17,-0.03c-0.06,0 -0.12,0.01 -0.17,0.03z" />
		<path id="svg_52" class="shp0" d="M35.37,23.35c-0.15,-0.16 -0.3,-0.31 -0.46,-0.46c0.15,0.15 0.3,0.31 0.46,0.46z" />
		<path id="svg_53" class="shp0" d="M39.88,18.1v0c0,0 0,-0.01 0,-0.01v2.25l-0.87,3.95c0,0.01 0,0.02 -0.01,0.03c0,-0.01 0,-0.02 0.01,-0.02v0h0l0.87,-3.95v-2.25h0z" />
		<path id="svg_54" class="shp0" d="M36.18,24.22c-0.08,-0.09 -0.16,-0.17 -0.24,-0.26c0.08,0.09 0.16,0.17 0.24,0.26z" />
		<path id="svg_55" class="shp0" d="M40.75,24.31c0.01,0.03 0.02,0.06 0.03,0.09c0,0 0,0 0,0c-0.01,-0.03 -0.02,-0.06 -0.03,-0.09h0z" />
		<path id="svg_56" class="shp0" d="M38.9,25.06h0c0,-0.02 0,-0.03 0,-0.05c0,0.02 0,0.03 0,0.05z" />
		<path id="svg_57" class="shp0" d="M39.53,23.51c0.04,-0.02 0.08,-0.05 0.12,-0.06c-0.04,0.02 -0.08,0.04 -0.12,0.06z" />
		<path id="svg_58" class="shp0" d="M39.36,23.66c0.04,-0.04 0.08,-0.08 0.13,-0.12c-0.04,0.03 -0.09,0.07 -0.13,0.12z" />
		<path id="svg_59" class="shp0" d="M40.78,25.74c0,0 0,0 0,0c-0.02,0.09 -0.05,0.17 -0.08,0.24c0.03,-0.08 0.06,-0.16 0.08,-0.25l0,0z" />
		<path id="svg_60" class="shp0" d="M11.05,24.32c0.04,-0.06 0.07,-0.11 0.11,-0.17c-0.04,0.06 -0.07,0.11 -0.11,0.17z" />
		<path id="svg_61" class="shp0" d="M40.27,23.54c0.04,0.03 0.09,0.07 0.13,0.12c-0.04,-0.04 -0.08,-0.08 -0.13,-0.12z" />
		<path id="svg_62" class="shp0" d="M11.74,23.31c0.02,-0.02 0.03,-0.05 0.05,-0.07c-0.02,0.02 -0.03,0.05 -0.05,0.07z" />
		<path id="svg_63" class="shp0" d="M28.37,25.05l0,0c0,0 0,0 0,0h0h0l-0.01,-0.01c0,0.01 0,0.01 0,0.02z" />
		<path id="svg_64" class="shp0" d="M9.99,26.25c-0.04,0.09 -0.08,0.18 -0.12,0.27c0.04,-0.09 0.08,-0.18 0.12,-0.27z" />
		<path id="svg_65" class="shp0" d="M9.46,27.49c-0.01,0.01 -0.01,0.03 -0.02,0.04c0.01,-0.01 0.01,-0.03 0.02,-0.04z" />
		<path id="svg_66" class="shp0" d="M40.48,18.68c0,0 0,0 0,0l0,0c0,0 0,0 0,0z" />
		<path id="svg_67" class="shp0" d="M14.28,20.59l0,0l0,0z" />
		<path id="svg_68" class="shp0" d="M13.32,21.48c0.05,-0.05 0.1,-0.09 0.15,-0.14c-0.05,0.05 -0.1,0.09 -0.15,0.14z" />
		<path id="svg_69" class="shp0" d="M12.46,22.41c0.05,-0.06 0.1,-0.12 0.15,-0.17c-0.05,0.06 -0.1,0.11 -0.15,0.17z" />
		<path id="svg_70" class="shp0" d="M40.75,24.31l-0.87,-3.95l0.87,3.95z" />
		<path id="svg_71" class="shp0" d="M25.6,27.3c-0.02,0 -0.03,-0.01 -0.05,-0.01c0.02,0 0.03,0.01 0.05,0.01z" />
		<path id="svg_72" class="shp0" d="M25.83,27.33c-0.02,0 -0.04,-0.01 -0.05,-0.01c0.02,0 0.04,0.01 0.05,0.01z" />
		<path id="svg_73" class="shp0" d="M10.53,25.21c-0.05,0.1 -0.11,0.2 -0.16,0.3c0.05,-0.1 0.1,-0.2 0.16,-0.3z" />
		<path id="svg_74" class="shp0" d="M24.95,27.06c0,0 0,0 0,0c0,0 0,0 0,0z" />
		<path id="svg_75" class="shp0" d="M25.37,27.24c-0.01,0 -0.02,-0.01 -0.03,-0.01c0.01,0 0.02,0.01 0.03,0.01z" />
		<path id="svg_76" class="shp0" d="M25.16,27.16c-0.01,0 -0.01,-0.01 -0.02,-0.01c0.01,0 0.01,0.01 0.02,0.01z" />
		<path id="svg_77" class="shp0" d="M23.94,25.93c0,0 0,0 0,0.01c0,0 0,0 0,-0.01z" />
		<path id="svg_78" class="shp0" d="M23.84,24.54c0,0.02 -0.01,0.03 -0.01,0.05c0,-0.02 0.01,-0.03 0.01,-0.05z" />
		<path id="svg_79" class="shp0" d="M24.07,23.94c0,0 0,0 0,0.01c0,0 0,0 0,-0.01z" />
		<path id="svg_80" class="shp0" d="M24.84,23.14c0,0 0,0 0,0c0,0 0,0 0,0z" />
		<path id="svg_81" class="shp0" d="M23.9,24.33c0,0.01 -0.01,0.02 -0.01,0.04c0,-0.01 0.01,-0.02 0.01,-0.04z" />
		<path id="svg_82" class="shp0" d="M23.98,24.13c0,0.01 -0.01,0.01 -0.01,0.02c0,-0.01 0.01,-0.01 0.01,-0.02z" />
		<path id="svg_83" class="shp0" d="M26.52,22.83c0,0 -0.01,0 -0.01,0c0,0 0.01,0 0.01,0z" />
		<path id="svg_84" class="shp0" d="M26.94,22.95c0,0 0,0 -0.01,0c0,0 0,0 0.01,0z" />
		<path id="svg_85" class="shp0" d="M25.22,22.95c0,0 -0.01,0 -0.01,0c0,0 0.01,0 0.01,0z" />
		<path id="svg_86" class="shp0" d="M25.64,22.82c0,0 -0.01,0 -0.02,0c0,0 0.01,0 0.02,0z" />
		<path id="svg_87" class="shp0" d="M28.35,24.79c0,0 0,0 0,0c0,0 0,0 0,0z" />
		<path id="svg_88" class="shp0" d="M26.08,17.72c0,-0.04 0,-0.07 0,-0.1c0,0.03 0,0.06 0,0.1z" />
		<path id="svg_89" class="shp0" d="M26.08,17.56c0,-0.02 0,-0.04 0,-0.06c0,0.02 0,0.04 0,0.06z" />
		<path id="svg_90" class="shp0" d="M26.08,17.47c0,-0.01 0,-0.01 0,-0.01c0,0 0,0 0,0.01z" />
		<path id="svg_91" class="shp0" d="M26.08,18.03v-0.03v-0.1c0,-0.03 0,-0.07 0,-0.1c0,0.07 0,0.15 0,0.23z" />
		<path id="svg_92" class="shp0" d="M40.55,26.28c-0.02,0.04 -0.05,0.08 -0.08,0.11c0.03,-0.03 0.05,-0.07 0.08,-0.11z" />
		<path id="svg_93" class="shp0" d="M23.79,24.77c0,0.02 -0.01,0.04 -0.01,0.05c0,-0.02 0.01,-0.04 0.01,-0.05z" />
		<path id="svg_94" class="shp0" d="M23.82,25.51c0,0 0,0.01 0,0.01c0,0 0,-0.01 0,-0.01z" />
		<path id="svg_95" class="shp0" d="M40.67,26.04c-0.02,0.06 -0.05,0.11 -0.08,0.16c0.03,-0.05 0.05,-0.1 0.08,-0.16z" />
		<path id="svg_96" class="shp2" d="M31.86,39.47c-0.07,-0.08 -0.15,-0.17 -0.23,-0.28c0.08,0.1 0.15,0.19 0.23,0.28z" />
		<path id="svg_97" class="shp4" d="M32.43,40.02c0,0 0,0.01 0.01,0.02c0,-0.01 -0.01,-0.02 -0.01,-0.02c0,0 -0.25,-0.19 -0.56,-0.55v0c0.31,0.36 0.56,0.55 0.56,0.55z" />
		<path id="svg_98" class="shp1" d="M39.87,18.1c0,0 0,0 0,0c0,0 0,0 0,0c0,0 0,0 0,0c0,0 0,0 0,0z" />
		<path id="svg_99" class="shp1" d="M40.86,25.08c0,0 0,0 0,-0.01v0c0,0 0,0 0,0.01z" />
		<path id="svg_100" class="shp8" d="M41.12,19.46l0,0l0,0c0,-0.01 -0.01,-0.01 -0.01,-0.02l0,0c-0.2,-0.28 -0.41,-0.53 -0.63,-0.77c0,0 0,0 0,0c0,0 0,0 0,0c0,0 0,0 -0.01,-0.01v0c-0.1,-0.1 -0.2,-0.21 -0.3,-0.3c-0.04,-0.04 -0.08,-0.07 -0.11,-0.1c-0.06,-0.06 -0.13,-0.11 -0.19,-0.17v0v2.25l0.87,3.95v0c0.01,0.03 0.02,0.06 0.03,0.09l0.6,0.67l0.01,-0.01h0.63c0,-0.06 0,-0.12 0,-0.17v0c0,-1.86 -0.31,-3.65 -0.87,-5.33v0c-0.01,-0.03 -0.02,-0.07 -0.03,-0.1z" />
		<path id="svg_101" class="shp8" d="M40.86,25.07c0,0 0,0 0,-0.01c0,0 0,0 0,0.01z" />
		<path id="svg_102" class="shp9" d="M40.83,24.69c0,0.01 0,0.01 0,0.02c0,0 0,0.01 0,0.01c0,0 0,0 0,0c0.01,0.09 0.02,0.19 0.02,0.29c0,0.02 0,0.03 0,0.05c0,0 0,0 0,0.01c0,0 0,0 0,0.01c0,0.02 0,0.04 0,0.06c0,0.1 -0.01,0.19 -0.02,0.28c0,0 0,0 0,0c0,0 0,0.01 0,0.01c0,0.01 0,0.01 0,0.02c-0.01,0.1 -0.03,0.2 -0.05,0.29c0,0 0,0 0,0v0l0,0c0,0 0,0 0,0v0l0.6,-0.66l-0.6,-0.67c0,0 0,0 0,0c0.02,0.09 0.04,0.19 0.06,0.29z" />
		<path id="svg_103" class="shp3" d="M40.78,25.74c-0.02,0.09 -0.05,0.17 -0.08,0.24c-0.01,0.02 -0.02,0.04 -0.03,0.06c-0.02,0.06 -0.05,0.11 -0.08,0.16c-0.01,0.03 -0.03,0.05 -0.05,0.08c-0.02,0.04 -0.05,0.07 -0.08,0.11c-0.04,0.05 -0.08,0.1 -0.12,0.14c-0.02,0.02 -0.03,0.03 -0.05,0.05c-0.03,0.03 -0.07,0.05 -0.1,0.07c-0.01,0.01 -0.03,0.01 -0.04,0.02c-0.09,0.04 -0.18,0.07 -0.27,0.07c-0.54,0 -0.98,-0.75 -0.98,-1.67h0c0,-0.02 0,-0.03 0,-0.05c0,-0.11 0.01,-0.22 0.02,-0.33c0,-0.03 0.01,-0.06 0.02,-0.09c0.02,-0.09 0.04,-0.19 0.06,-0.27c0,-0.01 0,-0.02 0.01,-0.02c0.06,-0.19 0.14,-0.36 0.23,-0.5c0.01,-0.02 0.03,-0.04 0.04,-0.05c0.03,-0.03 0.05,-0.07 0.08,-0.1c0.04,-0.04 0.08,-0.08 0.13,-0.12c0.02,-0.01 0.03,-0.02 0.05,-0.03c0.04,-0.02 0.08,-0.05 0.12,-0.06c0.02,-0.01 0.03,-0.01 0.05,-0.02c0.06,-0.02 0.11,-0.03 0.17,-0.03c0.06,0 0.12,0.01 0.17,0.03c0.02,0.01 0.03,0.01 0.05,0.02c0.04,0.02 0.08,0.04 0.12,0.06c0.02,0.01 0.03,0.02 0.05,0.03c0.04,0.03 0.09,0.07 0.13,0.12c0.03,0.03 0.05,0.06 0.08,0.1c0.01,0.02 0.03,0.04 0.04,0.05c0.09,0.14 0.17,0.31 0.23,0.5c0.01,0.03 0.02,0.06 0.03,0.09c0.02,0.09 0.04,0.19 0.06,0.29c0,0.01 0,0.02 0.01,0.03c0.01,0.09 0.02,0.19 0.02,0.29c0,0.02 0,0.04 0,0.06c0,0.02 0,0.04 0,0.06c0,0.1 -0.01,0.19 -0.02,0.28c0,0.01 0,0.02 -0.01,0.04c-0.01,0.1 -0.03,0.2 -0.05,0.29zM40.28,24.22c0,-0.35 -0.16,-0.63 -0.37,-0.63c-0.2,0 -0.37,0.28 -0.37,0.63c0,0.35 0.16,0.63 0.37,0.63c0.2,0 0.37,-0.28 0.37,-0.63z" />
		<path id="svg_104" class="shp1" d="M40.28,24.22c0,-0.35 -0.16,-0.63 -0.37,-0.63c-0.2,0 -0.37,0.28 -0.37,0.63c0,0.35 0.16,0.63 0.37,0.63c0.2,0 0.37,-0.28 0.37,-0.63z" />
		<path id="svg_105" class="shp10" d="M39.01,24.31v0c0.06,-0.19 0.14,-0.36 0.23,-0.5c0.01,-0.02 0.03,-0.04 0.04,-0.05c0.03,-0.03 0.05,-0.07 0.08,-0.1c0.04,-0.04 0.08,-0.08 0.13,-0.12c0.02,-0.01 0.03,-0.02 0.05,-0.03c0.04,-0.02 0.08,-0.05 0.12,-0.06c0.02,-0.01 0.03,-0.01 0.05,-0.02c0.06,-0.02 0.11,-0.03 0.17,-0.03c0.06,0 0.12,0.01 0.17,0.03c0.02,0.01 0.03,0.01 0.05,0.02c0.04,0.02 0.08,0.04 0.12,0.06c0.02,0.01 0.03,0.02 0.05,0.03c0.04,0.03 0.09,0.07 0.13,0.12c0.03,0.03 0.05,0.06 0.08,0.1c0.01,0.02 0.03,0.04 0.04,0.05c0.09,0.14 0.17,0.31 0.23,0.5l0,0h0l-0.87,-3.95l-0.87,3.95c0,0 0,0 0,0z" />
		<path id="svg_106" class="shp3" d="M28.37,25.05c0,0.01 0,0.01 0,0.02c0,0.32 -0.06,0.62 -0.18,0.89c-0.06,0.14 -0.13,0.27 -0.21,0.39c-0.17,0.24 -0.38,0.45 -0.62,0.62c-0.12,0.08 -0.25,0.15 -0.39,0.21c-0.27,0.12 -0.58,0.18 -0.89,0.18c-0.08,0 -0.16,0 -0.24,-0.01c-0.02,0 -0.04,-0.01 -0.05,-0.01c-0.06,-0.01 -0.12,-0.02 -0.18,-0.03c-0.02,0 -0.03,-0.01 -0.05,-0.01c-0.06,-0.01 -0.12,-0.03 -0.18,-0.05c-0.01,0 -0.02,-0.01 -0.03,-0.01c-0.06,-0.02 -0.13,-0.04 -0.19,-0.07c-0.01,0 -0.01,-0.01 -0.02,-0.01c-0.07,-0.03 -0.13,-0.06 -0.19,-0.09c0,0 0,0 0,0c-0.2,-0.11 -0.38,-0.25 -0.53,-0.41c-0.2,-0.2 -0.36,-0.45 -0.47,-0.71c0,0 0,0 0,-0.01c-0.05,-0.13 -0.1,-0.27 -0.13,-0.41c0,0 0,-0.01 0,-0.01c-0.03,-0.14 -0.04,-0.29 -0.04,-0.44c0,-0.08 0,-0.16 0.01,-0.24c0,-0.02 0.01,-0.04 0.01,-0.05c0.01,-0.06 0.02,-0.12 0.03,-0.18c0,-0.02 0.01,-0.03 0.01,-0.05c0.01,-0.06 0.03,-0.12 0.05,-0.18c0,-0.01 0.01,-0.02 0.01,-0.04c0.02,-0.06 0.04,-0.12 0.07,-0.18c0,-0.01 0.01,-0.01 0.01,-0.02c0.03,-0.06 0.06,-0.13 0.09,-0.19c0,0 0,0 0,-0.01c0.11,-0.2 0.25,-0.37 0.42,-0.53l0.01,0l0,-0.01c0.1,-0.1 0.21,-0.18 0.33,-0.26c0,0 0,0 0,0c0.12,-0.08 0.24,-0.14 0.37,-0.19c0,0 0.01,0 0.01,0c0.13,-0.05 0.26,-0.09 0.4,-0.12c0,0 0.01,0 0.02,0c0.14,-0.03 0.28,-0.04 0.43,-0.04c0.15,0 0.3,0.02 0.44,0.04c0,0 0.01,0 0.01,0c0.14,0.03 0.28,0.07 0.41,0.12c0,0 0,0 0.01,0c0.27,0.11 0.51,0.27 0.71,0.46c0.16,0.15 0.3,0.33 0.41,0.52l0,0c0.04,0.06 0.07,0.13 0.1,0.2c0,0 0,0 0,0c0.03,0.07 0.06,0.14 0.08,0.21c0,0 0,0 0,0c0.02,0.07 0.04,0.14 0.06,0.21c0,0 0,0 0,0.01c0.02,0.07 0.03,0.15 0.04,0.22c0,0 0,0 0,0c0.01,0.08 0.01,0.16 0.02,0.24c0,0.01 0,0.01 0,0.02zM26.94,23.91c0,-0.47 -0.39,-0.86 -0.86,-0.86c-0.48,0 -0.86,0.38 -0.86,0.86c0,0.47 0.39,0.86 0.86,0.86c0.48,0 0.86,-0.38 0.86,-0.86z" />
		<path id="svg_107" class="shp1" d="M26.94,23.91c0,-0.47 -0.39,-0.86 -0.86,-0.86c-0.48,0 -0.86,0.38 -0.86,0.86c0,0.47 0.39,0.86 0.86,0.86c0.48,0 0.86,-0.38 0.86,-0.86z" />
		<path id="svg_108" class="shp8" d="M24.49,23.41v0l0.01,0l0,-0.01v0l1.58,-4.81c0,0 0,-0.28 0,-0.57c0,-0.08 0,-0.16 0,-0.23c0,-0.02 0,-0.05 0,-0.07c0,-0.04 0,-0.07 0,-0.1c0,-0.02 0,-0.04 0,-0.06c0,-0.02 0,-0.04 0,-0.06c0,-0.01 0,-0.02 0,-0.03c0,-0.01 0,-0.01 0,-0.01c-0.88,-0.18 -1.79,-0.28 -2.72,-0.28c-0.31,0 -0.62,0.01 -0.92,0.03c-0.04,0 -0.09,0.01 -0.13,0.01c-1.59,0.12 -3.15,0.53 -4.6,1.19c-1.24,0.56 -2.4,1.31 -3.43,2.19v0c0,0 0,0 0,0c-0.28,0.24 -0.55,0.48 -0.81,0.74c-0.05,0.05 -0.1,0.09 -0.15,0.14c-0.25,0.25 -0.48,0.5 -0.71,0.76c-0.05,0.06 -0.1,0.11 -0.15,0.17c-0.23,0.27 -0.45,0.55 -0.67,0.83c-0.02,0.02 -0.03,0.05 -0.05,0.07c-0.2,0.27 -0.4,0.56 -0.58,0.84c-0.04,0.06 -0.07,0.11 -0.11,0.17c-0.15,0.24 -0.29,0.48 -0.43,0.72h7.2h0.01z" />
		<path id="svg_109" class="shp11" d="M30.58,22.87c0.01,-0.19 0.03,-0.37 0.04,-0.56c0.01,-0.25 0.02,-0.51 0.03,-0.76c0,-0.2 0,-0.39 0,-0.59c0,-0.06 0,-0.11 0,-0.17c-0.01,-0.51 -0.03,-1.02 -0.06,-1.53v0v0c0,0 0,0 0,0c0,0 0,0 0,0c0,0 -0.01,-0.01 -0.02,-0.01c-0.01,0 -0.01,-0.01 -0.02,-0.01c-0.09,-0.05 -0.33,-0.19 -0.53,-0.3c0,0 -0.01,-0.01 -0.01,-0.01c-0.05,-0.03 -0.1,-0.06 -0.15,-0.08c0,0 0,0 0,0c-0.04,-0.02 -0.07,-0.04 -0.1,-0.06c-0.01,0 -0.01,-0.01 -0.02,-0.01c-0.03,-0.02 -0.06,-0.03 -0.08,-0.04c-0.33,-0.17 -0.67,-0.33 -1.01,-0.47c-0.82,-0.34 -1.92,-0.65 -2.55,-0.79v0.43v0.1v0.03c0,0.28 0,0.57 0,0.57l1.57,4.82l0,0c0.16,0.15 0.3,0.33 0.41,0.52l0,0c0.04,0.06 0.07,0.13 0.1,0.2c0,0 0,0 0,0c0.03,0.07 0.06,0.14 0.08,0.21c0,0 0,0 0,0c0.02,0.07 0.04,0.14 0.06,0.21c0,0 0,0 0,0.01c0.02,0.07 0.03,0.15 0.04,0.22c0,0 0,0 0,0c0.01,0.08 0.01,0.16 0.02,0.24v0l0.01,0.01h1.92c0.13,-0.7 0.22,-1.41 0.28,-2.12c0,-0.02 0,-0.04 0,-0.06z" />
		<path id="svg_110" class="shp12" d="M33.09,21.17c0,0 0,0 0,0.01c0,0 0,0 0,-0.01z" />
		<path id="svg_111" class="shp12" d="M28.38,31.91c0.44,-0.43 0.85,-0.84 1.24,-1.25c0.23,-0.24 0.46,-0.48 0.68,-0.71c1.61,-1.73 2.78,-3.35 3.49,-5.43c0.02,-0.05 0.03,-0.11 0.05,-0.19c0,-0.01 0.01,-0.02 0.01,-0.03c0.02,-0.08 0.03,-0.16 0.05,-0.26c0.01,-0.07 0.01,-0.13 0.02,-0.2c-0.18,-0.91 -0.52,-1.79 -0.83,-2.66c0,0 0,0.01 0,0.01c0,0 -0.01,-0.01 -0.01,-0.01c-0.06,-0.06 -0.12,-0.11 -0.18,-0.16c-0.18,-0.17 -0.36,-0.33 -0.55,-0.48c-0.56,-0.47 -1.15,-0.9 -1.77,-1.28v0c0.03,0.51 0.05,1.02 0.06,1.53c0,0.06 0,0.11 0,0.17c0,0.2 0,0.39 0,0.59c0,0.25 -0.01,0.51 -0.03,0.76c-0.01,0.19 -0.02,0.38 -0.04,0.56c0,0.02 0,0.04 -0.01,0.06c-0.06,0.71 -0.15,1.42 -0.28,2.12l-0.23,1.06c-0.47,1.9 -1.43,3.62 -2.22,5.4c-0.21,0.47 -0.41,0.95 -0.58,1.43c-0.02,0.04 -0.03,0.09 -0.05,0.14c0.25,-0.26 0.46,-0.48 0.63,-0.64c0.18,-0.18 0.36,-0.35 0.53,-0.52z" />
		<path id="svg_112" class="shp10" d="M24.5,23.4v0c0.1,-0.1 0.21,-0.18 0.33,-0.26c0,0 0,0 0,0c0.12,-0.08 0.24,-0.14 0.37,-0.19c0,0 0.01,0 0.01,0c0.13,-0.05 0.26,-0.09 0.4,-0.12c0,0 0.01,0 0.02,0c0.14,-0.03 0.28,-0.04 0.43,-0.04c0.15,0 0.3,0.02 0.44,0.04c0,0 0.01,0 0.01,0c0.14,0.03 0.28,0.07 0.41,0.12c0,0 0,0 0.01,0c0.27,0.11 0.51,0.27 0.71,0.46l0,0l-1.57,-4.82z" />
		<path id="svg_113" class="shp9" d="M23.94,25.93c-0.05,-0.13 -0.1,-0.27 -0.13,-0.41c0,0 0,-0.01 0,-0.01c-0.03,-0.14 -0.04,-0.29 -0.04,-0.44c0,-0.08 0,-0.16 0.01,-0.24c0,-0.02 0.01,-0.04 0.01,-0.05c0.01,-0.06 0.02,-0.12 0.03,-0.18c0,-0.02 0.01,-0.03 0.01,-0.05c0.01,-0.06 0.03,-0.12 0.05,-0.18c0,-0.01 0.01,-0.02 0.01,-0.04c0.02,-0.06 0.04,-0.12 0.07,-0.18c0,-0.01 0.01,-0.01 0.01,-0.02c0.03,-0.06 0.06,-0.13 0.09,-0.19c0,0 0,0 0,-0.01c0.11,-0.2 0.25,-0.37 0.42,-0.53v0l-6.66,1.63h-0.01l6.59,1.6c-0.2,-0.2 -0.36,-0.45 -0.47,-0.71c0,0 0,0 0,-0.01z" />
		<path id="svg_114" class="shp11" d="M38.92,24.69c0,-0.03 0.01,-0.06 0.02,-0.09c0.02,-0.09 0.04,-0.19 0.06,-0.27c0,-0.01 0,-0.02 0.01,-0.03l0.87,-3.95l0,-2.25c-0.71,-0.58 -1.47,-0.9 -2.26,-0.9c-1,0 -1.93,0.55 -2.63,1.23c-0.76,0.74 -1.35,1.67 -1.83,2.62c-0.02,0.04 -0.04,0.08 -0.07,0.13c0.15,0.13 0.29,0.25 0.44,0.38c0.32,0.3 0.64,0.6 0.96,0.9c0.15,0.14 0.29,0.29 0.43,0.43c0.15,0.15 0.31,0.31 0.46,0.46c0.19,0.2 0.38,0.41 0.57,0.61c0.08,0.09 0.16,0.17 0.24,0.26c0.23,0.25 0.46,0.5 0.68,0.76l0,0c0.04,0.04 0.06,0.07 0.07,0.08h1.96c0,-0.02 0,-0.03 0,-0.05c0,-0.11 0.01,-0.22 0.03,-0.33z" />
		<path id="svg_115" class="shp11" d="M33.09,21.17c0,0 0,0 0,-0.01v0c0,0 0,0 0,0.01c0,0 0.01,0.01 0.01,0.01c0,0 0,-0.01 0,-0.01z" />
		<path id="svg_116" class="shp2" d="M9.44,27.53c0.01,-0.01 0.01,-0.03 0.02,-0.04c0.13,-0.33 0.26,-0.65 0.41,-0.97c0.04,-0.09 0.08,-0.18 0.12,-0.27c0.12,-0.25 0.24,-0.5 0.37,-0.74c0.05,-0.1 0.1,-0.2 0.16,-0.3c0.03,-0.05 0.06,-0.11 0.1,-0.16c0.14,-0.24 0.28,-0.49 0.43,-0.72c0.04,-0.06 0.07,-0.11 0.11,-0.17c0.19,-0.29 0.38,-0.57 0.58,-0.84c0.02,-0.02 0.03,-0.05 0.05,-0.07c0.21,-0.28 0.44,-0.56 0.67,-0.83c0.05,-0.06 0.1,-0.12 0.15,-0.17c0.23,-0.26 0.47,-0.52 0.71,-0.76c0.05,-0.05 0.1,-0.09 0.15,-0.14c0.26,-0.25 0.53,-0.5 0.81,-0.74c0,0 0,0 0,0c1.1,-3.65 4.45,-6.3 8.42,-6.3c1.6,0 3.18,0.46 4.55,1.28c1.4,0.85 2.53,2.09 3.27,3.54c0,0.01 0.01,0.01 0.01,0.02c0.02,0.04 0.04,0.07 0.06,0.11v0v0c0,0 0,0 0,0c0,0 0,0 0,0c0.62,0.38 1.21,0.81 1.77,1.28c0.19,0.16 0.37,0.32 0.55,0.48c0.06,0.05 0.12,0.11 0.18,0.16c0,0 0,0 0,-0.01c0,0 0,0 0,0c0.02,-0.04 0.04,-0.08 0.06,-0.12c0.56,-3.5 2.12,-6.03 3.95,-6.03c1.38,0 2.61,1.43 3.37,3.64l0.01,0.02c0,0 0,0 0,0c0.21,0.23 0.42,0.49 0.63,0.77l0,0c0,0.01 0.01,0.01 0.01,0.02l0,0l0,0c0.01,0.03 0.02,0.06 0.03,0.1v0l-0.03,-0.11c-2.28,-6.72 -8.68,-11.55 -16.21,-11.55c-9.45,0 -17.11,7.61 -17.11,16.99c0,1.85 0.3,3.63 0.85,5.29c0,0 0,-0.01 0,-0.01c0.11,-0.5 0.24,-1 0.39,-1.49c0.12,-0.38 0.25,-0.76 0.39,-1.14z" />
		<path id="svg_117" class="shp1" d="M41.38,25.07l-0.6,0.66v0c0,0 0,0 0,0c-0.02,0.09 -0.05,0.17 -0.08,0.25c-0.01,0.02 -0.02,0.04 -0.03,0.06c-0.02,0.06 -0.05,0.11 -0.08,0.16c-0.01,0.03 -0.03,0.05 -0.05,0.08c-0.02,0.04 -0.05,0.08 -0.08,0.11c-0.04,0.05 -0.08,0.1 -0.12,0.14c-0.02,0.02 -0.03,0.03 -0.05,0.05c-0.03,0.03 -0.07,0.05 -0.1,0.07c-0.01,0.01 -0.03,0.01 -0.04,0.02c-0.09,0.04 -0.18,0.07 -0.27,0.07c-0.54,0 -0.98,-0.75 -0.98,-1.67h0h0h-1.96h-0.01c0,0 0,0 0,0c0.37,0.42 0.73,0.84 1.08,1.27c0,0.01 0.01,0.01 0.01,0.02c0.34,0.42 0.68,0.84 1.02,1.26c0.02,0.02 0.03,0.04 0.05,0.06c0.32,0.4 0.63,0.81 0.95,1.22c0.03,0.04 0.06,0.08 0.09,0.12c0.33,0.43 0.66,0.86 0.98,1.3c0,0 0,0.01 0.01,0.01c0.56,-1.65 0.88,-3.42 0.9,-5.26h0h-0.63z" />
		<path id="svg_118" class="shp3" d="M22.31,17.22c0.04,0 0.09,-0.01 0.13,-0.01c0.31,-0.02 0.61,-0.03 0.92,-0.03c0.93,0 1.83,0.1 2.72,0.28c0,0 0,0 0,0.01c0,0.01 0,0.02 0,0.03c0,0.02 0,0.04 0,0.06c0,0.02 0,0.04 0,0.06c0,0.03 0,0.06 0,0.1c0,0.02 0,0.05 0,0.07c0,0.03 0,0.06 0,0.1v-0.43c0.62,0.15 1.73,0.45 2.55,0.79c0.34,0.14 0.68,0.3 1.01,0.47c0.02,0.01 0.04,0.02 0.08,0.04c0.01,0 0.01,0.01 0.02,0.01c0.03,0.02 0.06,0.04 0.1,0.06c0,0 0,0 0,0c0.05,0.03 0.1,0.05 0.15,0.08c0,0 0.01,0.01 0.01,0.01c0.21,0.12 0.44,0.25 0.53,0.3c0.01,0.01 0.02,0.01 0.02,0.01c0,0 0.01,0.01 0.02,0.01v0c-0.02,-0.04 -0.04,-0.07 -0.06,-0.11c0,-0.01 -0.01,-0.01 -0.01,-0.02c-0.74,-1.45 -1.88,-2.69 -3.27,-3.54c-1.36,-0.83 -2.95,-1.28 -4.55,-1.28c-3.97,0 -7.32,2.65 -8.42,6.3c1.04,-0.88 2.19,-1.62 3.43,-2.19c1.45,-0.66 3.01,-1.07 4.6,-1.19z" />
		<path id="svg_119" class="shp0" d="M26.08,17.99v-0.1" />
		<path id="svg_120" class="shp3" d="M34.99,18.42c0.7,-0.68 1.63,-1.23 2.63,-1.23c0.79,0 1.55,0.32 2.26,0.9c0,0 0,0.01 0,0.01l0,0v0c0.06,0.05 0.13,0.11 0.19,0.17c0.04,0.03 0.08,0.07 0.11,0.1c0.1,0.09 0.2,0.2 0.3,0.3v0c0,0 0,0 0.01,0.01c0,0 0,0 0,0l0,0l-0.01,-0.02c-0.76,-2.21 -1.99,-3.64 -3.37,-3.64c-1.84,0 -3.39,2.52 -3.95,6.03l0.01,0c0.48,-0.94 1.07,-1.87 1.83,-2.62z" />
		<path id="svg_121" class="shp1" d="M18.79,40.73c0.16,0.06 0.32,0.11 0.47,0.17c1.77,0.62 3.67,0.95 5.65,0.95c2.26,0 4.41,-0.44 6.39,-1.23c0.1,-0.04 0.21,-0.09 0.31,-0.13c0.17,-0.07 0.33,-0.14 0.5,-0.22c0.15,-0.07 0.3,-0.14 0.44,-0.21c-0.03,0 -0.07,0.01 -0.11,0.01v0c-0.61,0.07 -1.22,0.07 -1.82,-0.01c-3.52,-0.5 -4.3,-2.19 -4.19,-3.94c-0.25,-0.15 -0.51,-0.31 -0.77,-0.5c-2.71,-1.95 -4.31,-4.03 -4.31,-4.03c0,0 2.09,1.6 5.21,2.8c0.07,0.03 0.13,0.05 0.2,0.07c0.15,-0.5 0.32,-0.98 0.47,-1.4v0c0.02,-0.05 0.03,-0.09 0.05,-0.14c0.17,-0.49 0.37,-0.96 0.58,-1.43c0.79,-1.78 1.74,-3.5 2.22,-5.4l0.23,-1.06h-1.92h0h0c0,0 0,0 0,0l0,0v0c0,0.01 0,0.01 0,0.02c0,0.32 -0.06,0.62 -0.18,0.89c-0.06,0.14 -0.13,0.27 -0.21,0.39c-0.17,0.24 -0.38,0.45 -0.62,0.62c-0.12,0.08 -0.25,0.15 -0.39,0.21c-0.27,0.12 -0.58,0.18 -0.89,0.18c-0.08,0 -0.16,0 -0.24,-0.01c-0.02,0 -0.04,-0.01 -0.05,-0.01c-0.06,-0.01 -0.12,-0.02 -0.18,-0.03c-0.02,0 -0.03,-0.01 -0.05,-0.01c-0.06,-0.01 -0.12,-0.03 -0.18,-0.05c-0.01,0 -0.02,-0.01 -0.03,-0.01c-0.06,-0.02 -0.13,-0.04 -0.19,-0.07c-0.01,0 -0.01,-0.01 -0.02,-0.01c-0.07,-0.03 -0.13,-0.06 -0.19,-0.09c0,0 0,0 0,0c-0.2,-0.11 -0.38,-0.25 -0.53,-0.41l-6.59,-1.6h-7.2c-0.03,0.05 -0.07,0.11 -0.1,0.16c-0.05,0.1 -0.11,0.2 -0.16,0.3c-0.13,0.25 -0.26,0.49 -0.37,0.74c-0.04,0.09 -0.08,0.18 -0.12,0.27c-0.15,0.32 -0.28,0.64 -0.41,0.97c-0.01,0.01 -0.01,0.03 -0.02,0.04c-0.14,0.38 -0.27,0.76 -0.39,1.14c-0.15,0.49 -0.28,0.99 -0.39,1.49c1.13,3.43 3.34,6.38 6.22,8.46c0.08,0.06 0.17,0.11 0.26,0.17c0.49,0.34 0.99,0.66 1.51,0.94c0.69,0.38 1.4,0.71 2.14,0.99z" />
		<path id="svg_122" class="shp13" d="M30.6,35.45c-0.03,0.18 -0.04,0.36 -0.05,0.53c-0.01,0.31 0.01,0.61 0.06,0.89c0.03,0.19 0.07,0.37 0.12,0.54c0.07,0.26 0.17,0.5 0.27,0.73c0.1,0.22 0.22,0.43 0.34,0.62c0.04,0.06 0.08,0.12 0.12,0.18c0.06,0.09 0.12,0.17 0.18,0.25c0.08,0.1 0.15,0.19 0.23,0.28c0.31,0.36 0.56,0.55 0.56,0.55c0,0 0,0.01 0.01,0.02c0,0.01 0.01,0.02 0.01,0.04v0c0.03,0 0.07,-0.01 0.11,-0.01c0.76,-0.09 1.53,-0.3 2.29,-0.57c0.39,-0.14 0.77,-0.29 1.15,-0.46c0.12,-0.05 0.23,-0.11 0.34,-0.17c3.92,-1.88 7.2,-5.21 7.2,-5.21c-4.92,2.4 -9.73,2.31 -12.93,1.79z" />
		<path id="svg_123" class="shp14" d="M40.04,28.89c-0.31,-0.41 -0.63,-0.81 -0.95,-1.22c-0.02,-0.02 -0.03,-0.04 -0.05,-0.06c-0.34,-0.42 -0.68,-0.85 -1.02,-1.26c0,-0.01 -0.01,-0.01 -0.01,-0.02c-0.35,-0.43 -0.71,-0.85 -1.08,-1.27c-0.02,-0.03 -0.05,-0.05 -0.07,-0.08c-0.22,-0.26 -0.45,-0.51 -0.68,-0.76c-0.08,-0.09 -0.16,-0.17 -0.24,-0.26c-0.19,-0.21 -0.38,-0.41 -0.57,-0.61c-0.15,-0.16 -0.3,-0.31 -0.46,-0.46c-0.14,-0.15 -0.29,-0.29 -0.43,-0.43c-0.31,-0.31 -0.63,-0.61 -0.96,-0.9c-0.14,-0.13 -0.29,-0.26 -0.44,-0.39c0,0 0,0 0,0c0.31,0.88 0.66,1.78 0.84,2.7c0.05,0.24 0.08,0.47 0.11,0.7c0.43,3.18 -0.6,5.26 -2.23,8c-0.12,0.2 -0.24,0.4 -0.36,0.6c-0.37,0.62 -0.61,1.2 -0.75,1.75c-0.05,0.18 -0.08,0.36 -0.11,0.54c3.2,0.51 8.01,0.61 12.93,-1.79c0,0 -0.97,-1.41 -2.42,-3.35c-0.32,-0.43 -0.65,-0.87 -0.98,-1.3c-0.03,-0.04 -0.06,-0.08 -0.09,-0.12z" />
		<path id="svg_124" class="shp3" d="M32.43,40.02c0,0 -0.25,-0.19 -0.56,-0.55c-0.07,-0.08 -0.15,-0.17 -0.23,-0.28c-0.06,-0.08 -0.12,-0.16 -0.18,-0.25c-0.04,-0.06 -0.08,-0.12 -0.12,-0.18c-0.12,-0.19 -0.23,-0.39 -0.34,-0.62c-0.1,-0.22 -0.2,-0.47 -0.27,-0.73c-0.05,-0.17 -0.09,-0.35 -0.12,-0.54c-0.05,-0.28 -0.07,-0.58 -0.06,-0.89c0.01,-0.17 0.02,-0.35 0.05,-0.53c0.03,-0.18 0.06,-0.35 0.11,-0.54c0.14,-0.55 0.38,-1.13 0.75,-1.75c0,0 0,0 0,-0.01c0.12,-0.2 0.24,-0.4 0.36,-0.59c1.63,-2.74 2.66,-4.81 2.23,-8c-0.03,-0.23 -0.07,-0.46 -0.11,-0.7c-0.02,0.17 -0.05,0.31 -0.08,0.43c0,0.01 0,0.02 -0.01,0.03c-0.02,0.07 -0.03,0.14 -0.05,0.19c-0.71,2.08 -1.89,3.7 -3.49,5.43c-0.22,0.23 -0.45,0.47 -0.68,0.71c-0.39,0.4 -0.8,0.82 -1.24,1.25c-0.17,0.17 -0.35,0.35 -0.53,0.52c-0.17,0.16 -0.38,0.38 -0.63,0.64v0c-0.15,0.42 -0.32,0.9 -0.47,1.4c-0.07,-0.02 -0.13,-0.05 -0.2,-0.07c-3.12,-1.2 -5.21,-2.8 -5.21,-2.8c0,0 1.61,2.08 4.31,4.03c0.26,0.19 0.52,0.35 0.77,0.5c-0.11,1.76 0.67,3.44 4.19,3.94c0.6,0.08 1.2,0.08 1.82,0.01c-0.01,-0.02 -0.01,-0.03 -0.01,-0.04c0,-0.01 -0.01,-0.02 -0.01,-0.02z" />
	</g>
</svg>