<?xml version="1.0"?>
<svg xmlns="http://www.w3.org/2000/svg" xmlns:xlink="http://www.w3.org/1999/xlink" version="1.1" viewBox="0 0 192 192" width="100px" height="100px"><g fill="none" fill-rule="nonzero" stroke="none" stroke-width="1" stroke-linecap="butt" stroke-linejoin="miter" stroke-miterlimit="10" stroke-dasharray="" stroke-dashoffset="0" font-family="none" font-weight="none" font-size="none" text-anchor="none" style="mix-blend-mode: normal"><path d="M0,192v-192h192v192z" fill="none"/><g id="Layer_1" fill="#6b7681"><path d="M96.288,16.288c-44.184,0 -80,35.816 -80,80c0,44.184 35.816,80 80,80c44.184,0 80,-35.816 80,-80c0,-44.184 -35.816,-80 -80,-80zM141.664,61.288c-3.884,0.136 -6.692,-2.152 -6.692,-5.632c0,-2.892 1.812,-4.764 1.792,-5.496c-0.076,-2.188 -3.44,-2.276 -4.356,-2.228c-12.6,0.404 -15.508,16.384 -18.196,30.02l-1.048,5.696c7.256,1.048 12.408,-0.24 15.284,-2.08c4.048,-2.588 -0.56,-4.772 -0.476,-7.792c0.104,-3.804 3.552,-5.596 5.752,-5.66c3.08,-0.072 6.264,3.264 6.264,7.588c0,5.284 -8.532,12.88 -22.76,12.576c-1.736,-0.04 -3.324,-0.16 -4.82,-0.332l-2.824,15.212c-2.404,11.064 -5.6,26.184 -17.024,39.376c-9.812,11.504 -19.772,13.296 -24.236,13.44c-8.344,0.284 -15.968,-4.848 -16.164,-10.7c-0.192,-5.676 4.644,-9.404 7.988,-9.404c4.884,0 7.712,3.552 7.836,7.228c0.112,3.1 -1.532,4.068 -2.616,4.652c-0.728,0.576 -1.824,1.16 -1.784,2.44c0.028,0.548 0.624,1.804 2.476,1.744c3.528,-0.12 7.1,-1.016 9.784,-2.948c8.128,-6.68 11.128,-17.612 15.228,-38.804l0.86,-5.132c1.396,-6.896 3.6,-16.32 5.964,-23.972c-5.732,-4.256 -9.04,-9.348 -16.748,-11.408c-5.284,-1.412 -7.672,-0.96 -9.936,1.864c-1.204,1.5 -1.62,3.204 -1.62,4.86c0,6.36 12.396,18.888 12.396,26.48c0,0.896 -0.104,1.816 -0.272,2.776c-1.712,9.992 -13.784,17.66 -28.056,13.332c-12.18,-3.708 -14.852,-12.316 -13.384,-17.008c1.288,-4.12 5.164,-5.508 8.416,-4.528c3.48,1.06 5,5.472 3.684,9.16c-0.12,0.332 -0.168,0.456 -0.536,1.224c-0.404,0.88 -1.152,1.656 -1.476,2.688c-0.788,2.512 2.712,4.296 5.148,5.04c5.452,1.656 10.764,-1.156 12.12,-5.504c1.248,-3.996 -0.56,-6.784 -1.628,-7.856c0,0 -10.108,-13.088 -10.108,-20.328c0,-1.58 0.148,-3.232 0.676,-4.92c0.98,-3.124 3.032,-6.448 6.02,-8.648c6.3,-4.632 12.528,-5.208 19.056,-3.36c8.44,2.4 12.372,7.72 17.632,11.972c2.944,-8.512 6.156,-14.548 12.296,-21.576c5.536,-6.412 12.988,-11.048 21.512,-11.344c8.52,-0.272 14.704,3.568 14.92,9.6c0.092,2.572 -1.148,7.524 -6.344,7.692z"/></g></g></svg>
