<svg xmlns="http://www.w3.org/2000/svg" viewBox="0 0 50 50" width="50" height="50">
	<style>
		tspan { white-space:pre }
		.shp0 { fill: none } 
		.shp1 { fill: #ffffff } 
	</style>
	<g id="Layer">
		<path id="canvas_background" class="shp0" d="M-0.78,313.28h454.69v-314.06h-454.69z" />
	</g>
	<g id="Layer">
		<path id="svg_1" class="shp1" d="M5.41,16.27l10.23,28.03c-7.16,-3.48 -12.09,-10.81 -12.09,-19.3c0,-3.11 0.67,-6.06 1.86,-8.73zM37.85,30.85l-2.14,7.15l-7.75,-23.05c1.29,-0.07 2.45,-0.2 2.45,-0.2c1.16,-0.14 1.02,-1.84 -0.14,-1.77c0,0 -3.47,0.27 -5.72,0.27c-2.11,0 -5.65,-0.27 -5.65,-0.27c-1.16,-0.07 -1.29,1.7 -0.14,1.77c0,0 1.09,0.14 2.25,0.2l3.34,9.15l-4.69,14.08l-7.81,-23.23c1.29,-0.07 2.46,-0.2 2.46,-0.2c1.16,-0.14 1.02,-1.84 -0.14,-1.77c0,0 -3.47,0.27 -5.71,0.27c-0.4,0 -0.88,-0.01 -1.38,-0.03c3.84,-5.82 10.43,-9.66 17.92,-9.66c5.59,0 10.67,2.13 14.48,5.63c-0.09,0 -0.18,-0.02 -0.28,-0.02c-2.11,0 -3.6,1.84 -3.6,3.81c0,1.77 1.02,3.26 2.11,5.03c0.81,1.43 1.77,3.26 1.77,5.91c0,1.84 -0.55,4.15 -1.63,6.93zM31.97,44.93c0.04,0.11 0.1,0.21 0.15,0.3c-2.23,0.78 -4.62,1.21 -7.12,1.21c-2.1,0 -4.14,-0.31 -6.06,-0.87l6.44,-18.7zM46.45,25c0,7.91 -4.29,14.82 -10.66,18.54l6.55,-18.94c1.22,-3.06 1.63,-5.5 1.63,-7.68c0,-0.79 -0.05,-1.52 -0.14,-2.21c1.67,3.06 2.63,6.56 2.63,10.29zM25,0c13.78,0 25,11.21 25,25c0,13.79 -11.22,25 -25,25c-13.78,0 -25,-11.21 -25,-25c0,-13.79 11.22,-25 25,-25zM25,48.85c13.15,0 23.85,-10.7 23.85,-23.85c0,-13.15 -10.7,-23.85 -23.85,-23.85c-13.15,0 -23.85,10.7 -23.85,23.85c0,13.15 10.7,23.85 23.85,23.85z" />
	</g>
</svg>